<?xml version="1.0" encoding="utf-8"?>
<!-- Generator: Adobe Illustrator 25.2.1, SVG Export Plug-In . SVG Version: 6.00 Build 0)  -->
<svg version="1.1" id="Ebene_1" xmlns="http://www.w3.org/2000/svg" xmlns:xlink="http://www.w3.org/1999/xlink" x="0px" y="0px"
	 width="32px" height="32px" viewBox="0 0 32 32" style="enable-background:new 0 0 32 32;" xml:space="preserve">
<g>
	<g>
		<path d="M28.2,0H3.8C1.7,0,0,1.7,0,3.8v24.5C0,30.3,1.7,32,3.8,32h24.5c2.1,0,3.8-1.7,3.8-3.8V3.8C32,1.7,30.3,0,28.2,0z
			 M29.5,28.2c0,0.7-0.6,1.2-1.2,1.2h-7.1V19.3H25l0.6-3.9h-4.5v-2.7c0-1.1,0.8-1.9,1.9-1.9h2.6V7H23c-3.2,0-5.7,2.6-5.7,5.8v2.7
			h-3.8v3.9h3.8v10.2H3.8c-0.7,0-1.2-0.6-1.2-1.2V3.8c0-0.7,0.6-1.2,1.2-1.2h24.5c0.7,0,1.2,0.6,1.2,1.2V28.2z"/>
	</g>
</g>
</svg>
