<?xml version="1.0" encoding="utf-8"?>
<!-- Generator: Adobe Illustrator 25.2.1, SVG Export Plug-In . SVG Version: 6.00 Build 0)  -->
<svg version="1.1" id="Ebene_1" xmlns="http://www.w3.org/2000/svg" xmlns:xlink="http://www.w3.org/1999/xlink" x="0px" y="0px"
	 width="32px" height="32px" viewBox="0 0 32 32" style="enable-background:new 0 0 32 32;" xml:space="preserve">
<path d="M16,7.8c-4.5,0-8.2,3.7-8.2,8.2c0,4.5,3.7,8.2,8.2,8.2c4.5,0,8.2-3.7,8.2-8.2C24.2,11.5,20.5,7.8,16,7.8L16,7.8z M16,21.3
	c-2.9,0-5.3-2.4-5.3-5.3s2.4-5.3,5.3-5.3s5.3,2.4,5.3,5.3C21.3,18.9,19,21.3,16,21.3z"/>
<path d="M22.6,0.1C19.7,0,12.4,0,9.4,0.1C6.8,0.2,4.5,0.8,2.7,2.7C-0.4,5.8,0,9.9,0,16c0,6.2-0.3,10.3,2.7,13.3
	C5.8,32.4,10,32,16,32c6.2,0,8.3,0,10.5-0.8c3-1.2,5.2-3.8,5.4-8.6c0.1-2.9,0.1-10.2,0-13.2C31.6,3.8,28.6,0.4,22.6,0.1L22.6,0.1z
	 M27.3,27.3c-2,2-4.8,1.8-11.3,1.8c-6.7,0-9.3,0.1-11.3-1.9C2.4,25,2.8,21.4,2.8,16c0-7.4-0.8-12.7,6.6-13.1
	c1.7-0.1,2.2-0.1,6.5-0.1l0,0c7.1,0,12.7-0.7,13.1,6.7c0.1,1.7,0.1,2.2,0.1,6.5C29.1,22.6,29.2,25.3,27.3,27.3L27.3,27.3z"/>
<circle cx="24.5" cy="7.5" r="1.9"/>
</svg>
