<?xml version="1.0" encoding="utf-8"?>
<!-- Generator: Adobe Illustrator 25.2.1, SVG Export Plug-In . SVG Version: 6.00 Build 0)  -->
<svg version="1.1" id="Ebene_1" xmlns="http://www.w3.org/2000/svg" xmlns:xlink="http://www.w3.org/1999/xlink" x="0px" y="0px"
	 width="32px" height="32px" viewBox="0 0 32 32" style="enable-background:new 0 0 32 32;" xml:space="preserve">
<path d="M10,26.4H5.6V12.3H10V26.4z M10.4,7.8c0-1.4-1.1-2.6-2.6-2.6c-1.4,0-2.6,1.1-2.6,2.6c0,1.4,1.1,2.6,2.6,2.6
	C9.3,10.4,10.4,9.2,10.4,7.8z M26.4,18.7c0-3.8-0.8-6.6-5.2-6.6c-2.1,0-3.6,1.1-4.1,2.2h0v-1.9h-4.2v14.1H17v-7
	c0-1.8,0.5-3.6,2.7-3.6c2.2,0,2.3,2.1,2.3,3.7v6.9h4.3V18.7z M32,28.2V3.8C32,1.7,30.3,0,28.2,0H3.8C1.7,0,0,1.7,0,3.8v24.5
	C0,30.3,1.7,32,3.8,32h24.5C30.3,32,32,30.3,32,28.2z M28.2,2.5c0.7,0,1.2,0.6,1.2,1.2v24.5c0,0.7-0.6,1.2-1.2,1.2H3.8
	c-0.7,0-1.2-0.6-1.2-1.2V3.8c0-0.7,0.6-1.2,1.2-1.2H28.2z"/>
</svg>
