<?xml version="1.0" encoding="utf-8"?>
<!-- Generator: Adobe Illustrator 25.2.1, SVG Export Plug-In . SVG Version: 6.00 Build 0)  -->
<svg version="1.1" id="Ebene_1" xmlns="http://www.w3.org/2000/svg" xmlns:xlink="http://www.w3.org/1999/xlink" x="0px" y="0px"
	 width="32px" height="32px" viewBox="0 0 32 32" style="enable-background:new 0 0 32 32;" xml:space="preserve">
<path d="M32,6.5c-2,0.1-2,0.1-2.2,0.1L31,3.2c0,0-3.7,1.4-4.7,1.6c-2.5-2.2-6.2-2.3-8.8-0.7c-2.2,1.3-3.3,3.6-2.9,6.3
	C10.4,9.8,6.9,7.8,4.1,4.4L3.2,3.4L2.5,4.6C1.7,6.1,1.4,7.9,1.8,9.5c0.1,0.7,0.4,1.3,0.7,1.9l-0.8-0.3l-0.1,1.3
	c-0.1,1.3,0.3,2.8,1.1,4c0.2,0.3,0.5,0.7,0.9,1.1l-0.4-0.1l0.5,1.4c0.6,1.9,1.9,3.4,3.6,4.2c-1.7,0.7-3.1,1.2-5.3,1.9L0,25.7l1.9,1
	c0.7,0.4,3.3,1.7,5.8,2.1c5.6,0.9,11.9,0.2,16.2-3.7c3.6-3.2,4.8-7.8,4.5-12.6c0-0.7,0.2-1.4,0.6-1.9C29.7,9.6,32,6.5,32,6.5z
	 M27.4,9.5c-0.7,0.9-1,2-0.9,3.2c0.2,4.8-1.1,8.6-3.9,11.1C19.3,26.8,14,27.9,8,27c-1.1-0.2-2.2-0.6-3.1-0.9
	c1.9-0.6,3.3-1.2,5.7-2.3l3.3-1.6L10.2,22c-1.7-0.1-3.2-1-4.1-2.3c0.5,0,0.9-0.1,1.4-0.2l3.4-1l-3.5-0.9c-1.7-0.4-2.7-1.4-3.2-2.2
	c-0.3-0.5-0.6-1-0.7-1.5C4,14,4.4,14,5,14.1l3.2,0.3l-2.6-2c-1.8-1.4-2.6-3.6-2-5.7c5.7,5.9,12.5,5.5,13.1,5.7
	c-0.1-1.4-0.2-1.5-0.2-1.6c-0.9-3.1,1-4.6,1.9-5.2c1.8-1.1,4.6-1.3,6.6,0.5c0.4,0.4,1,0.5,1.5,0.4c0.5-0.1,0.9-0.2,1.3-0.4l-0.8,2.3
	l1,0C28,8.8,27.7,9.2,27.4,9.5z"/>
</svg>
