<?xml version="1.0" encoding="utf-8"?>
<!-- Generator: Adobe Illustrator 25.2.1, SVG Export Plug-In . SVG Version: 6.00 Build 0)  -->
<svg version="1.1" id="Ebene_1" xmlns="http://www.w3.org/2000/svg" xmlns:xlink="http://www.w3.org/1999/xlink" x="0px" y="0px"
	 width="32px" height="32px" viewBox="0 0 32 32" style="enable-background:new 0 0 32 32;" xml:space="preserve">
<path d="M31,0h-7.3c-0.4,0-0.7,0.2-0.9,0.5L11.9,18.9c-0.2,0.3-0.2,0.7,0,1l7,11.6c0.2,0.3,0.5,0.5,0.9,0.5h7.3
	c0.8,0,1.3-0.9,0.9-1.5l-6.7-11.1L31.9,1.5C32.3,0.8,31.8,0,31,0L31,0z M19.2,18.9c-0.2,0.3-0.2,0.7,0,1L25.3,30h-5l-6.4-10.6
	L24.2,2h5L19.2,18.9z"/>
<path d="M1,22.9h6.7c0.4,0,0.7-0.2,0.9-0.5l5.1-8.6c0.2-0.3,0.2-0.7,0-1l-3.9-7C9.6,5.4,9.2,5.2,8.9,5.2H2.2C1.4,5.2,1,6,1.3,6.7
	l3.6,6.5l-4.8,8.1C-0.3,22,0.2,22.9,1,22.9L1,22.9z M6.9,13.7c0.2-0.3,0.2-0.7,0-1l-3-5.5h4.4l3.3,6l-4.5,7.6H2.7L6.9,13.7z"/>
</svg>
