<?xml version="1.0" encoding="utf-8"?>
<!-- Generator: Adobe Illustrator 25.2.1, SVG Export Plug-In . SVG Version: 6.00 Build 0)  -->
<svg version="1.1" id="Ebene_1" xmlns="http://www.w3.org/2000/svg" xmlns:xlink="http://www.w3.org/1999/xlink" x="0px" y="0px"
	 width="32px" height="32px" viewBox="0 0 32 32" style="enable-background:new 0 0 32 32;" xml:space="preserve">
<g>
	<g>
		<path d="M29,16.2c-0.3-1.4-1.5-2.5-2.9-2.7c-3.3-0.4-6.7-0.4-10.1-0.4c-3.4,0-6.8,0-10.1,0.4c-1.4,0.2-2.6,1.2-2.9,2.7
			c-0.5,2-0.5,4.3-0.5,6.4c0,2.1,0,4.3,0.5,6.4c0.3,1.4,1.5,2.5,2.9,2.7C9.2,32,12.6,32,16,32c3.4,0,6.8,0,10.1-0.4
			c1.4-0.2,2.6-1.2,2.9-2.7c0.5-2,0.5-4.3,0.5-6.4C29.5,20.5,29.5,18.2,29,16.2z M10.2,17.8h-2v10.4H6.4V17.8H4.5v-1.7h5.7V17.8z
			 M15.1,28.2h-1.6v-1c-0.6,0.7-1.3,1.1-1.9,1.1c-0.5,0-0.9-0.2-1.1-0.7c-0.1-0.3-0.1-0.7-0.1-1.3v-7.1h1.6v6.6c0,0.4,0,0.6,0,0.6
			c0,0.3,0.2,0.4,0.4,0.4c0.3,0,0.7-0.3,1-0.8v-6.9h1.6L15.1,28.2L15.1,28.2z M21.3,25.5c0,0.8-0.1,1.4-0.2,1.8
			c-0.2,0.7-0.7,1-1.3,1c-0.6,0-1.1-0.3-1.7-1v0.9h-1.6V16.1h1.6V20c0.5-0.6,1.1-1,1.7-1c0.6,0,1.1,0.3,1.3,1c0.1,0.4,0.2,1,0.2,1.8
			V25.5z M27.5,24h-3.3v1.6c0,0.8,0.3,1.3,0.8,1.3c0.4,0,0.6-0.2,0.7-0.7c0-0.1,0-0.5,0-1.1h1.7v0.2c0,0.5,0,0.9,0,1.1
			c-0.1,0.4-0.2,0.7-0.4,1c-0.5,0.7-1.1,1-2,1c-0.9,0-1.5-0.3-2-0.9c-0.3-0.5-0.5-1.2-0.5-2.1v-3.2c0-1,0.2-1.7,0.5-2.1
			c0.5-0.6,1.1-0.9,2-0.9c0.8,0,1.5,0.3,1.9,0.9c0.3,0.5,0.5,1.2,0.5,2.1L27.5,24L27.5,24z"/>
		<path d="M25.1,20.5c-0.5,0-0.8,0.4-0.8,1.2v0.8h1.6v-0.8C25.9,20.9,25.6,20.5,25.1,20.5z"/>
		<path d="M19,20.5c-0.3,0-0.5,0.1-0.8,0.4v5.5c0.3,0.3,0.5,0.4,0.8,0.4c0.5,0,0.7-0.4,0.7-1.2v-3.8C19.7,20.9,19.5,20.5,19,20.5z"
			/>
		<path d="M19.9,12.3c0.6,0,1.2-0.4,1.9-1.1v1h1.6V3.1h-1.6v7c-0.4,0.5-0.7,0.8-1,0.8c-0.2,0-0.4-0.1-0.4-0.4c0-0.1,0-0.3,0-0.6V3.1
			h-1.6v7.2c0,0.6,0.1,1.1,0.1,1.4C19,12.1,19.4,12.3,19.9,12.3z"/>
		<path d="M8.4,7.3v4.9h1.8V7.3L12.5,0h-1.8L9.4,4.8L8.1,0H6.1c0.4,1.1,0.8,2.3,1.2,3.4C7.9,5.1,8.3,6.4,8.4,7.3z"/>
		<path d="M14.9,12.3c0.8,0,1.5-0.3,1.9-0.9c0.3-0.5,0.5-1.2,0.5-2.1V6.1c0-1-0.2-1.7-0.5-2.1C16.4,3.3,15.7,3,14.9,3
			c-0.8,0-1.5,0.3-1.9,0.9c-0.4,0.5-0.5,1.2-0.5,2.1v3.2c0,1,0.2,1.7,0.5,2.1C13.4,12,14.1,12.3,14.9,12.3z M14.1,5.8
			c0-0.8,0.3-1.3,0.8-1.3c0.5,0,0.8,0.4,0.8,1.3v3.8c0,0.8-0.3,1.3-0.8,1.3c-0.5,0-0.8-0.4-0.8-1.3V5.8z"/>
	</g>
</g>
</svg>
